<svg width="150" height="150" viewBox="0 0 150 150" fill="none" xmlns="http://www.w3.org/2000/svg">
<path d="M84.8381 72.4909C84.8797 72.3218 85.1202 72.3218 85.1618 72.4909L85.716 74.7428C85.9347 75.6314 86.6525 76.3101 87.5519 76.4787L89.4592 76.8361C89.6405 76.8701 89.6405 77.1298 89.4592 77.1637L87.5519 77.5212C86.6525 77.6897 85.9347 78.3685 85.716 79.257L85.1618 81.509C85.1202 81.6781 84.8797 81.6781 84.8381 81.509L84.2839 79.257C84.0653 78.3685 83.3474 77.6897 82.448 77.5212L80.5407 77.1637C80.3594 77.1298 80.3594 76.8701 80.5407 76.8361L82.448 76.4787C83.3474 76.3101 84.0653 75.6314 84.2839 74.7428L84.8381 72.4909Z" fill="url(#paint0_linear_10_99)"/>
<path d="M54.9699 53.3403C55.0978 52.7757 55.9022 52.7757 56.0301 53.3403L56.1646 53.934C56.7548 56.5396 58.8396 58.5436 61.4665 59.0305C61.9872 59.127 61.9872 59.873 61.4665 59.9695C58.8396 60.4564 56.7548 62.4604 56.1646 65.066L56.0301 65.6597C55.9022 66.2243 55.0978 66.2243 54.9699 65.6597L54.8354 65.066C54.2452 62.4604 52.1604 60.4564 49.5335 59.9695C49.0128 59.873 49.0128 59.127 49.5335 59.0305C52.1604 58.5436 54.2452 56.5396 54.8354 53.934L54.9699 53.3403Z" fill="url(#paint1_linear_10_99)"/>
<path d="M75.3046 24.0313C75.3999 23.2049 76.6001 23.2049 76.6954 24.0313L77.4092 30.222C77.7654 33.3114 80.1171 35.7954 83.1824 36.32L88.968 37.31C89.7439 37.4428 89.7439 38.5572 88.968 38.69L83.1824 39.68C80.1171 40.2046 77.7654 42.6886 77.4092 45.778L76.6954 51.9687C76.6001 52.7951 75.3999 52.7951 75.3046 51.9687L74.5908 45.778C74.2346 42.6886 71.8829 40.2046 68.8176 39.68L63.032 38.69C62.2561 38.5572 62.2561 37.4428 63.032 37.31L68.8176 36.32C71.8829 35.7954 74.2346 33.3114 74.5908 30.222L75.3046 24.0313Z" fill="url(#paint2_linear_10_99)"/>
<defs>
<linearGradient id="paint0_linear_10_99" x1="85" y1="71.6666" x2="85" y2="82.3333" gradientUnits="userSpaceOnUse">
<stop stop-color="#CDFF3D"/>
<stop offset="0.22" stop-color="white"/>
<stop offset="1" stop-color="#FF9900"/>
</linearGradient>
<linearGradient id="paint1_linear_10_99" x1="55.5" y1="51" x2="55.5" y2="68" gradientUnits="userSpaceOnUse">
<stop stop-color="#CDFF3D"/>
<stop offset="0.22" stop-color="white"/>
<stop offset="1" stop-color="#FF9900"/>
</linearGradient>
<linearGradient id="paint2_linear_10_99" x1="76" y1="20.8571" x2="76" y2="55.1429" gradientUnits="userSpaceOnUse">
<stop stop-color="#CDFF3D"/>
<stop offset="0.22" stop-color="white"/>
<stop offset="1" stop-color="#FF9900"/>
</linearGradient>
</defs>
</svg>
