<svg width="150" height="150" viewBox="0 0 150 150" fill="none" xmlns="http://www.w3.org/2000/svg">
<path d="M84.7572 70.2364C84.8197 69.9828 85.1803 69.9828 85.2428 70.2364L86.074 73.6144C86.402 74.9472 87.4788 75.9653 88.8279 76.2181L91.6889 76.7543C91.9608 76.8052 91.9608 77.1948 91.6889 77.2457L88.8279 77.7819C87.4788 78.0347 86.402 79.0528 86.074 80.3856L85.2428 83.7636C85.1803 84.0172 84.8197 84.0172 84.7572 83.7636L83.926 80.3856C83.598 79.0528 82.5212 78.0347 81.1721 77.7819L78.3111 77.2457C78.0392 77.1948 78.0392 76.8052 78.3111 76.7543L81.1721 76.2181C82.5212 75.9653 83.598 74.9472 83.926 73.6144L84.7572 70.2364Z" fill="url(#paint0_linear_10_82)"/>
<path opacity="0.5" d="M55.1757 53.7016C55.2567 53.3596 55.7433 53.3597 55.8243 53.7016L56.2373 55.4436C56.6667 57.2549 58.1314 58.6378 59.9644 58.9624L61.1466 59.1718C61.5135 59.2368 61.5135 59.7632 61.1466 59.8282L59.9644 60.0376C58.1314 60.3622 56.6667 61.7451 56.2373 63.5563L55.8243 65.2984C55.7433 65.6403 55.2567 65.6403 55.1757 65.2984L54.7627 63.5564C54.3333 61.7451 52.8686 60.3622 51.0356 60.0376L49.8534 59.8282C49.4865 59.7632 49.4865 59.2368 49.8534 59.1718L51.0356 58.9624C52.8686 58.6378 54.3333 57.2549 54.7627 55.4436L55.1757 53.7016Z" fill="url(#paint1_linear_10_82)"/>
<path d="M75.6523 35.9902C75.7003 35.5774 76.2997 35.5774 76.3477 35.9902L76.4063 36.4949C76.586 38.04 77.7638 39.2811 79.2973 39.5414L79.9666 39.6549C80.3552 39.7209 80.3552 40.2791 79.9666 40.3451L79.2973 40.4586C77.7638 40.7189 76.586 41.96 76.4063 43.5051L76.3477 44.0098C76.2997 44.4226 75.7003 44.4226 75.6523 44.0098L75.5937 43.5051C75.414 41.96 74.2362 40.7189 72.7027 40.4586L72.0334 40.3451C71.6448 40.2791 71.6448 39.7209 72.0334 39.6549L72.7027 39.5414C74.2362 39.2811 75.414 38.04 75.5937 36.4949L75.6523 35.9902Z" fill="url(#paint2_linear_10_82)"/>
<defs>
<linearGradient id="paint0_linear_10_82" x1="85" y1="69" x2="85" y2="85" gradientUnits="userSpaceOnUse">
<stop stop-color="#CDFF3D"/>
<stop offset="0.22" stop-color="white"/>
<stop offset="1" stop-color="#FF9900"/>
</linearGradient>
<linearGradient id="paint1_linear_10_82" x1="55.5" y1="52.3333" x2="55.5" y2="66.6667" gradientUnits="userSpaceOnUse">
<stop stop-color="#CDFF3D"/>
<stop offset="0.22" stop-color="white"/>
<stop offset="1" stop-color="#FF9900"/>
</linearGradient>
<linearGradient id="paint2_linear_10_82" x1="76" y1="34" x2="76" y2="46" gradientUnits="userSpaceOnUse">
<stop stop-color="#CDFF3D"/>
<stop offset="0.22" stop-color="white"/>
<stop offset="1" stop-color="#FF9900"/>
</linearGradient>
</defs>
</svg>
