<svg width="150" height="150" viewBox="0 0 150 150" fill="none" xmlns="http://www.w3.org/2000/svg">
<path d="M84.147 67.3226C84.3735 66.4403 85.6265 66.4403 85.853 67.3226L86.0779 68.1984C87.1406 72.3375 90.5196 75.4766 94.7256 76.2322C95.5819 76.386 95.5819 77.614 94.7256 77.7678C90.5196 78.5234 87.1406 81.6625 86.0779 85.8016L85.853 86.6774C85.6265 87.5597 84.3735 87.5597 84.147 86.6774L83.9221 85.8016C82.8594 81.6625 79.4804 78.5234 75.2744 77.7678C74.4181 77.614 74.4181 76.386 75.2744 76.2322C79.4804 75.4766 82.8594 72.3375 83.9221 68.1984L84.147 67.3226Z" fill="url(#paint0_linear_14_7)"/>
<path d="M54.9075 52.6156C55.0505 51.9846 55.9495 51.9846 56.0925 52.6156L56.2428 53.2791C56.9024 56.1913 59.2325 58.4311 62.1685 58.9752C62.7504 59.0831 62.7504 59.9169 62.1685 60.0248C59.2325 60.5689 56.9024 62.8087 56.2428 65.7209L56.0925 66.3844C55.9495 67.0154 55.0505 67.0154 54.9075 66.3844L54.7572 65.7209C54.0976 62.8087 51.7675 60.5689 48.8315 60.0248C48.2496 59.9169 48.2496 59.0831 48.8315 58.9752C51.7675 58.4311 54.0976 56.1913 54.7572 53.2791L54.9075 52.6156Z" fill="url(#paint1_linear_14_7)"/>
<path d="M75.5623 35.6879C75.6238 35.1695 76.3762 35.1695 76.4377 35.6879C76.6688 37.6348 78.158 39.1951 80.092 39.5166L80.2543 39.5436C80.7701 39.6293 80.7701 40.3707 80.2543 40.4564L80.092 40.4834C78.158 40.8049 76.6688 42.3652 76.4377 44.3121C76.3762 44.8305 75.6238 44.8305 75.5623 44.3121C75.3312 42.3652 73.842 40.8049 71.908 40.4834L71.7457 40.4564C71.2299 40.3707 71.2299 39.6293 71.7457 39.5436L71.908 39.5166C73.842 39.1951 75.3312 37.6348 75.5623 35.6879Z" fill="url(#paint2_linear_14_7)"/>
<defs>
<linearGradient id="paint0_linear_14_7" x1="85" y1="63.5806" x2="85" y2="90.4194" gradientUnits="userSpaceOnUse">
<stop stop-color="#CDFF3D"/>
<stop offset="0.22" stop-color="white"/>
<stop offset="1" stop-color="#FF9900"/>
</linearGradient>
<linearGradient id="paint1_linear_14_7" x1="55.5" y1="50" x2="55.5" y2="69" gradientUnits="userSpaceOnUse">
<stop stop-color="#CDFF3D"/>
<stop offset="0.22" stop-color="white"/>
<stop offset="1" stop-color="#FF9900"/>
</linearGradient>
<linearGradient id="paint2_linear_14_7" x1="76" y1="33.1429" x2="76" y2="46.8571" gradientUnits="userSpaceOnUse">
<stop stop-color="#CDFF3D"/>
<stop offset="0.22" stop-color="white"/>
<stop offset="1" stop-color="#FF9900"/>
</linearGradient>
</defs>
</svg>
