<svg width="150" height="150" viewBox="0 0 150 150" fill="none" xmlns="http://www.w3.org/2000/svg">
<path d="M84.0306 64.827C84.2854 63.821 85.7146 63.821 85.9694 64.827L86.3231 66.2234C87.6046 71.2827 91.7212 75.1285 96.8559 76.0634C97.8978 76.2531 97.8978 77.7469 96.8559 77.9366C91.7212 78.8715 87.6046 82.7173 86.3231 87.7766L85.9694 89.173C85.7146 90.179 84.2854 90.179 84.0306 89.173L83.6769 87.7766C82.3954 82.7173 78.2788 78.8715 73.1441 77.9366C72.1022 77.7469 72.1022 76.2531 73.1441 76.0634C78.2788 75.1285 82.3954 71.2827 83.6769 66.2234L84.0306 64.827Z" fill="url(#paint0_linear_10_90)"/>
<path d="M55.1757 53.7016C55.2567 53.3597 55.7433 53.3597 55.8243 53.7016L56.2373 55.4437C56.6667 57.255 58.1314 58.6378 59.9644 58.9624L61.1466 59.1718C61.5135 59.2368 61.5135 59.7633 61.1466 59.8283L59.9644 60.0376C58.1314 60.3622 56.6667 61.7451 56.2373 63.5564L55.8243 65.2985C55.7433 65.6404 55.2567 65.6404 55.1757 65.2985L54.7627 63.5564C54.3333 61.7451 52.8686 60.3622 51.0356 60.0376L49.8534 59.8283C49.4865 59.7633 49.4865 59.2368 49.8534 59.1718L51.0356 58.9624C52.8686 58.6378 54.3333 57.255 54.7627 55.4437L55.1757 53.7016Z" fill="url(#paint1_linear_10_90)"/>
<path d="M75.8262 37.9951C75.8502 37.7887 76.1498 37.7887 76.1738 37.9951L76.2032 38.2475C76.293 39.02 76.8819 39.6406 77.6487 39.7707L77.9833 39.8275C78.1776 39.8604 78.1776 40.1396 77.9833 40.1725L77.6487 40.2293C76.8819 40.3594 76.293 40.98 76.2032 41.7525L76.1738 42.0049C76.1498 42.2113 75.8502 42.2113 75.8262 42.0049L75.7968 41.7525C75.707 40.98 75.1181 40.3594 74.3513 40.2293L74.0167 40.1725C73.8224 40.1396 73.8224 39.8604 74.0167 39.8275L74.3513 39.7707C75.1181 39.6406 75.707 39.02 75.7968 38.2475L75.8262 37.9951Z" fill="url(#paint2_linear_10_90)"/>
<defs>
<linearGradient id="paint0_linear_10_90" x1="85" y1="60.4839" x2="85" y2="93.5161" gradientUnits="userSpaceOnUse">
<stop stop-color="#CDFF3D"/>
<stop offset="0.22" stop-color="white"/>
<stop offset="1" stop-color="#FF9900"/>
</linearGradient>
<linearGradient id="paint1_linear_10_90" x1="55.5" y1="52.3334" x2="55.5" y2="66.6667" gradientUnits="userSpaceOnUse">
<stop stop-color="#CDFF3D"/>
<stop offset="0.22" stop-color="white"/>
<stop offset="1" stop-color="#FF9900"/>
</linearGradient>
<linearGradient id="paint2_linear_10_90" x1="76" y1="37" x2="76" y2="43" gradientUnits="userSpaceOnUse">
<stop stop-color="#CDFF3D"/>
<stop offset="0.22" stop-color="white"/>
<stop offset="1" stop-color="#FF9900"/>
</linearGradient>
</defs>
</svg>
