<svg width="150" height="150" viewBox="0 0 150 150" fill="none" xmlns="http://www.w3.org/2000/svg">
<path d="M84.6763 67.9819C84.7595 67.6436 85.2404 67.6436 85.3237 67.9819L86.432 72.4858C86.8694 74.2629 88.3051 75.6203 90.1039 75.9574L93.9185 76.6723C94.281 76.7403 94.281 77.2596 93.9185 77.3276L90.1039 78.0425C88.3051 78.3796 86.8694 79.737 86.432 81.5141L85.3237 86.018C85.2404 86.3563 84.7595 86.3563 84.6763 86.018L83.5679 81.5141C83.1306 79.737 81.6949 78.3796 79.8961 78.0425L76.0815 77.3276C75.7189 77.2596 75.7189 76.7403 76.0815 76.6723L79.8961 75.9574C81.6949 75.6203 83.1306 74.2629 83.5679 72.4858L84.6763 67.9819Z" fill="url(#paint0_linear_10_95)"/>
<path d="M54.527 42.1048C54.7701 41.079 56.2299 41.079 56.473 42.1048L57.7119 47.331C59 52.7648 63.3942 56.9135 68.8931 57.8873L72.4398 58.5154C73.5406 58.7103 73.5406 60.2898 72.4398 60.4847L68.8931 61.1128C63.3942 62.0867 59 66.2353 57.7119 71.6691L56.473 76.8953C56.2299 77.9211 54.7701 77.9211 54.527 76.8953L53.2881 71.6691C52 66.2353 47.6058 62.0867 42.1069 61.1128L38.5602 60.4847C37.4594 60.2898 37.4594 58.7103 38.5602 58.5154L42.1069 57.8873C47.6058 56.9135 52 52.7648 53.2881 47.331L54.527 42.1048Z" fill="url(#paint1_linear_10_95)"/>
<path d="M75.8262 37.9951C75.8502 37.7887 76.1498 37.7887 76.1738 37.9951L76.2032 38.2475C76.293 39.02 76.8819 39.6406 77.6487 39.7707L77.9833 39.8275C78.1776 39.8604 78.1776 40.1396 77.9833 40.1725L77.6487 40.2293C76.8819 40.3594 76.293 40.98 76.2032 41.7525L76.1738 42.0049C76.1498 42.2113 75.8502 42.2113 75.8262 42.0049L75.7968 41.7525C75.707 40.98 75.1181 40.3594 74.3513 40.2293L74.0167 40.1725C73.8224 40.1396 73.8224 39.8604 74.0167 39.8275L74.3513 39.7707C75.1181 39.6406 75.707 39.02 75.7968 38.2475L75.8262 37.9951Z" fill="url(#paint2_linear_10_95)"/>
<defs>
<linearGradient id="paint0_linear_10_95" x1="85" y1="66.3333" x2="85" y2="87.6666" gradientUnits="userSpaceOnUse">
<stop stop-color="#CDFF3D"/>
<stop offset="0.22" stop-color="white"/>
<stop offset="1" stop-color="#FF9900"/>
</linearGradient>
<linearGradient id="paint1_linear_10_95" x1="55.5" y1="38.0001" x2="55.5" y2="81.0001" gradientUnits="userSpaceOnUse">
<stop stop-color="#CDFF3D"/>
<stop offset="0.22" stop-color="white"/>
<stop offset="1" stop-color="#FF9900"/>
</linearGradient>
<linearGradient id="paint2_linear_10_95" x1="76" y1="37" x2="76" y2="43" gradientUnits="userSpaceOnUse">
<stop stop-color="#CDFF3D"/>
<stop offset="0.22" stop-color="white"/>
<stop offset="1" stop-color="#FF9900"/>
</linearGradient>
</defs>
</svg>
