<svg width="15" height="15" viewBox="0 0 15 15" fill="none" xmlns="http://www.w3.org/2000/svg">
<path d="M6.66153 0.859375H4.16886C2.11886 0.859375 0.833527 2.31071 0.833527 4.36537V9.90804C0.833527 11.9627 2.11286 13.414 4.16886 13.414H10.0515C12.1082 13.414 13.3875 11.9627 13.3875 9.90804V7.22271" stroke="#776F69" stroke-width="1.33333" stroke-linecap="round" stroke-linejoin="round"/>
<path fill-rule="evenodd" clip-rule="evenodd" d="M4.8852 6.2805L9.8672 1.2985C10.4879 0.678496 11.4939 0.678496 12.1145 1.2985L12.9259 2.10983C13.5465 2.7305 13.5465 3.73716 12.9259 4.35716L7.91987 9.36316C7.64853 9.6345 7.28053 9.78716 6.89653 9.78716H4.3992L4.46187 7.26716C4.4712 6.8965 4.62253 6.54316 4.8852 6.2805Z" stroke="#776F69" stroke-width="1.33333" stroke-linecap="round" stroke-linejoin="round"/>
<path d="M9.11014 2.06836L12.1541 5.11236" stroke="#776F69" stroke-width="1.33333" stroke-linecap="round" stroke-linejoin="round"/>
</svg>
