<svg width="14" height="12" viewBox="0 0 14 12" fill="none" xmlns="http://www.w3.org/2000/svg">
<path fill-rule="evenodd" clip-rule="evenodd" d="M10.4062 5.3346H3.59552C3.31952 5.3346 3.09552 5.1106 3.09552 4.8346C3.09552 4.55858 3.31952 4.33458 3.59552 4.33458H10.4062C10.6822 4.33458 10.9062 4.55858 10.9062 4.8346C10.9062 5.1106 10.6822 5.3346 10.4062 5.3346ZM13.0488 3.87991L11.0875 1.00125C10.7828 0.550583 10.2762 0.28125 9.7315 0.28125H4.27352C3.72952 0.28125 3.22352 0.550577 2.91885 0.99991L0.952182 3.87991C0.522849 4.50924 0.580849 5.3426 1.09352 5.90526L5.96416 11.2586C6.22883 11.5506 6.60616 11.7179 6.9995 11.7179C7.39283 11.7179 7.77083 11.5506 8.03483 11.2586L12.9062 5.90593C13.4188 5.34393 13.4775 4.51058 13.0488 3.87991Z" fill="#F3EEE9"/>
</svg>
